<svg width="140" height="140" viewBox="0 0 140 140" fill="none" xmlns="http://www.w3.org/2000/svg">
<path d="M74.7171 37.1643C71.3519 33.7991 71.3519 28.3429 74.7171 24.9776C78.0824 21.6123 83.5386 21.6123 86.9038 24.9776L74.7171 37.1643Z" fill="#1E2329"/>
<path d="M68.2149 26.7622L75.5089 26.7624L68.5155 19.7314C67.2943 18.5036 65.6381 17.8139 63.9111 17.8138L56.6171 17.8136L63.6104 24.8446C64.8316 26.0724 66.4879 26.7622 68.2149 26.7622Z" fill="#1E2329"/>
<path d="M53.7611 115.153L63.1442 115.153L72.5274 124.536L53.7611 124.536L53.7611 115.153Z" fill="#1E2329"/>
<path d="M6.63486 91.3253L13.2698 97.9601L13.2698 111.23L5.3404e-05 97.9601L6.63486 91.3253Z" fill="#1E2329"/>
<path d="M53.7611 115.152L53.7611 105.769L63.1442 105.769L63.1442 115.152L53.7611 115.152Z" fill="#E8A37D"/>
<path d="M6.63393 91.3257L13.2688 84.6907L19.9038 91.3257L13.2688 97.9606L6.63393 91.3257Z" fill="#E8A37D"/>
<path d="M42.8742 50.0005L41.606 51.2687C36.6402 56.2345 36.6402 64.2856 41.606 69.2515L51.8656 58.9919L42.8742 50.0005Z" fill="#484E58"/>
<path fill-rule="evenodd" clip-rule="evenodd" d="M53.2436 53.4412L59.6523 59.8498C61.8899 62.0875 63.147 65.1223 63.147 68.2868L63.147 105.769L49.8896 105.769L49.8896 68.8359L43.8692 62.8156L53.2436 53.4412Z" fill="#1E2329"/>
<g style="mix-blend-mode:soft-light" opacity="0.6">
<path fill-rule="evenodd" clip-rule="evenodd" d="M53.2436 53.4412L59.6523 59.8498C61.8899 62.0875 63.147 65.1223 63.147 68.2868L63.147 105.769L49.8896 105.769L49.8896 68.8359L43.8692 62.8156L53.2436 53.4412Z" fill="url(#paint0_linear_2442_4792)"/>
</g>
<path fill-rule="evenodd" clip-rule="evenodd" d="M42.524 49.9579L51.8984 59.3323L19.7193 91.5114L10.3449 82.137L42.524 49.9579Z" fill="#1E2329"/>
<path fill-rule="evenodd" clip-rule="evenodd" d="M83.8713 60.3756L90.7777 53.4691L98.2772 60.9686L88.5418 70.7041C82.9044 76.3415 73.2653 72.3488 73.2654 64.3764L73.2654 50.0492L83.8713 50.0492L83.8713 60.3756Z" fill="#56B4FC"/>
<g style="mix-blend-mode:soft-light" opacity="0.6">
<path fill-rule="evenodd" clip-rule="evenodd" d="M83.8713 60.3756L90.7777 53.4691L98.2772 60.9686L88.5418 70.7041C82.9044 76.3415 73.2653 72.3488 73.2654 64.3764L73.2654 50.0492L83.8713 50.0492L83.8713 60.3756Z" fill="url(#paint1_linear_2442_4792)"/>
</g>
<path d="M86.74 24.9155C90.1084 28.2839 90.1084 33.7451 86.74 37.1135C83.3716 40.4819 77.9103 40.4819 74.5419 37.1135L86.74 24.9155Z" fill="#E8A37D"/>
<path d="M107.785 48.3329L98.4961 48.3329L98.4961 57.6217L107.785 57.6217L107.785 48.3329Z" fill="#E8A37D"/>
<path d="M72.3863 75.9095L116.943 39.2972L119.468 42.3701L74.9113 78.9824L72.3863 75.9095Z" fill="#56B4FC"/>
<path d="M128.175 35.2161L125.65 32.1432L122.577 34.6682L125.102 37.7411L128.175 35.2161Z" fill="#56B4FC"/>
<path d="M103.793 23.2926C121.371 25.1955 134.372 41.017 132.83 58.6309L103.793 23.2926Z" fill="#929AA5"/>
<path fill-rule="evenodd" clip-rule="evenodd" d="M63.4387 29.742L53.2785 19.5328C46.6045 12.8266 35.155 17.5531 35.1551 27.0143L35.1552 36.4122L45.7611 36.4121L45.761 27.0142L55.9212 37.2234L63.4387 29.742Z" fill="#56B4FC"/>
<g style="mix-blend-mode:soft-light" opacity="0.6">
<path fill-rule="evenodd" clip-rule="evenodd" d="M63.4387 29.742L53.2785 19.5328C46.6045 12.8266 35.155 17.5531 35.1551 27.0143L35.1552 36.4122L45.7611 36.4121L45.761 27.0142L55.9212 37.2234L63.4387 29.742Z" fill="url(#paint2_linear_2442_4792)"/>
</g>
<path d="M35.3767 44.9241L41.5237 51.071L47.6707 44.9241L41.5237 38.7771L35.3767 44.9241Z" fill="#E8A37D"/>
<path d="M78.4521 44.6927H71.4288V37.6694L63.1919 29.4325L42.5491 50.0754L63.1919 70.7182L83.8348 50.0754L78.4521 44.6927Z" fill="#56B4FC"/>
<path d="M78.4521 44.6927H71.4288V37.6694L63.1919 29.4325L42.5491 50.0754L63.1919 70.7182L83.8348 50.0754L78.4521 44.6927Z" fill="#56B4FC"/>
<g style="mix-blend-mode:soft-light" opacity="0.6">
<path d="M78.4521 44.6927H71.4288V37.6694L63.1919 29.4325L42.5491 50.0754L63.1919 70.7182L83.8348 50.0754L78.4521 44.6927Z" fill="url(#paint3_linear_2442_4792)"/>
</g>
<path d="M114.591 90.7246C114.591 110.891 98.2428 127.239 78.0766 127.239C57.9104 127.239 41.5624 110.891 41.5624 90.7246C41.5624 70.5583 57.9104 54.2104 78.0766 54.2104C98.2428 54.2104 114.591 70.5583 114.591 90.7246Z" fill="#CACED3"/>
<path d="M41.5624 90.7246C41.5624 110.891 57.9104 127.239 78.0766 127.239V54.2104C57.9104 54.2104 41.5624 70.5583 41.5624 90.7246Z" fill="url(#paint4_linear_2442_4792)"/>
<path d="M113.786 83.0647C114.226 85.1253 114.492 87.2503 114.568 89.4236L110.998 85.8531L113.786 83.0647Z" fill="#1652F0"/>
<path d="M111.508 76.0173L108.511 79.0145L110.998 81.5013L108.262 84.2367V87.4696L104.283 83.4907V79.8849H100.305V84.8584L97.0718 88.0913L87.995 79.0145H78.0479L83.2701 84.2367V87.7182H76.5558L71.4579 82.6203H69.0955V85.9775L75.0637 91.9458H80.7833V96.2976L74.069 103.012L77.0532 105.996L74.069 108.98V116.316L68.4738 121.911V116.316H65.3653L61.3864 112.337V106.245L56.1642 101.023V96.422H49.0769L45.471 92.8161V84.8584L51.0663 79.2632H57.7806L61.2621 82.7447V80.5066H66.6087L69.0955 78.0198L65.7383 74.6626H64.1219V76.6521H62.5055L60.2674 74.414V77.3981L58.278 75.4087H55.2938V77.8955H51.688V75.906L55.7912 71.8028L53.4287 69.4404H63.8732L65.7383 67.5753V64.5912L62.7542 67.5753H60.6404V65.4615L64.9923 61.1097H78.0479L82.2754 56.8821V54.449C95.3874 55.9501 106.389 64.3964 111.508 76.0173Z" fill="#1652F0"/>
<path d="M56.7327 64.7153L54.7965 66.6515L56.7327 68.5877L58.6689 66.6515L56.7327 64.7153Z" fill="#1652F0"/>
<path d="M108.262 88.5886L105.527 91.3241L108.262 94.0595L110.998 91.3241L108.262 88.5886Z" fill="#1652F0"/>
<path d="M98.8125 89.3346H101.299V92.5675H98.8125V89.3346Z" fill="#1652F0"/>
<path d="M81.5583 106.972L78.0768 110.454V116.546H81.5583V106.972Z" fill="#1652F0"/>
<path d="M119.596 67.167L122.836 70.4062L126.075 67.167L122.836 63.9279L119.596 67.167Z" fill="#0667D0"/>
<path d="M132.259 57.0079L133.584 58.333L134.909 57.0079L133.584 55.6827L132.259 57.0079Z" fill="#0667D0"/>
<path d="M55.9914 44.4929L57.7582 46.2597L59.5251 44.4929L57.7582 42.7261L55.9914 44.4929Z" fill="#1652F0"/>
<path d="M31.8449 107.215L34.2007 109.57L36.5565 107.215L34.2007 104.859L31.8449 107.215Z" fill="#56B4FC"/>
<g style="mix-blend-mode:soft-light" opacity="0.6">
<path d="M78.0768 61.0809L78.0479 61.1099H64.9923L60.6404 65.4617V67.5755H62.7542L65.7383 64.5914V67.5755L63.8732 69.4406H53.4287L55.7912 71.803L51.688 75.9062V77.8956H55.2938V75.4089H58.278L60.2674 77.3983V74.4142L62.5055 76.6522H64.1219V74.6628H65.7383L69.0955 78.02L66.6087 80.5068H61.2621V82.7449L57.7806 79.2634H51.0663L45.471 84.8586V92.8163L49.0769 96.4222H56.1642V101.023L61.3864 106.245V112.338L65.3653 116.316H68.4738V121.912L74.069 116.316V108.98L77.0532 105.996L74.069 103.012L78.0768 99.0044V91.946H75.0637L69.0955 85.9777V82.6205H71.4579L76.5558 87.7184H78.0768V79.0436L78.0479 79.0147H78.0768V61.0809Z" fill="black"/>
<path d="M54.7965 66.6517L56.7327 64.7155L58.6689 66.6517L56.7327 68.5879L54.7965 66.6517Z" fill="black"/>
</g>
<defs>
<linearGradient id="paint0_linear_2442_4792" x1="49.8489" y1="105.769" x2="49.8489" y2="68.3144" gradientUnits="userSpaceOnUse">
<stop/>
<stop offset="1" stop-opacity="0"/>
</linearGradient>
<linearGradient id="paint1_linear_2442_4792" x1="72.3485" y1="63.4568" x2="82.0696" y2="73.1779" gradientUnits="userSpaceOnUse">
<stop/>
<stop offset="1" stop-opacity="0"/>
</linearGradient>
<linearGradient id="paint2_linear_2442_4792" x1="49.5419" y1="34.3739" x2="34.8969" y2="19.7289" gradientUnits="userSpaceOnUse">
<stop/>
<stop offset="1" stop-opacity="0"/>
</linearGradient>
<linearGradient id="paint3_linear_2442_4792" x1="53.0862" y1="39.9991" x2="73.6144" y2="60.5273" gradientUnits="userSpaceOnUse">
<stop/>
<stop offset="1" stop-opacity="0"/>
</linearGradient>
<linearGradient id="paint4_linear_2442_4792" x1="49.5131" y1="127.239" x2="87.7941" y2="88.9577" gradientUnits="userSpaceOnUse">
<stop stop-color="#979797"/>
<stop offset="1" stop-color="#2B2F36" stop-opacity="0"/>
</linearGradient>
</defs>
</svg>
